<?xml version="1.0" encoding="utf-8"?>
<!-- Generator: Adobe Illustrator 15.1.0, SVG Export Plug-In . SVG Version: 6.00 Build 0)  -->
<!DOCTYPE svg PUBLIC "-//W3C//DTD SVG 1.1//EN" "http://www.w3.org/Graphics/SVG/1.1/DTD/svg11.dtd">
<svg version="1.1" id="Layer_1" xmlns="http://www.w3.org/2000/svg" xmlns:xlink="http://www.w3.org/1999/xlink" x="0px" y="0px"
	 width="1080.742px" height="547.165px" viewBox="0 0 1080.742 547.165" enable-background="new 0 0 1080.742 547.165"
	 xml:space="preserve">
<g>
	<path fill-rule="evenodd" clip-rule="evenodd" fill="#00AE6C" d="M297.389,547.165v-56.892
		c11.382,16.646,24.242,35.427,38.957,56.892H297.389L297.389,547.165z"/>
	<polygon fill-rule="evenodd" clip-rule="evenodd" fill="#00AE6C" points="297.389,57.524 297.389,0 334.415,0 	"/>
	<polygon fill-rule="evenodd" clip-rule="evenodd" fill="#00AE6C" points="297.389,0 297.389,57.524 239.062,148.151 
		239.062,50.791 270.892,0 297.389,0 	"/>
	<path fill-rule="evenodd" clip-rule="evenodd" fill="#00AE6C" d="M297.389,490.273v56.892h-26.387l-31.941-48.262v-94.353
		C252.973,425.144,271.182,451.94,297.389,490.273z"/>
	<polygon fill-rule="evenodd" clip-rule="evenodd" fill="#00AE6C" points="239.062,50.791 239.062,148.151 175.385,247.085 
		143.708,202.976 239.062,50.791 	"/>
	<path fill-rule="evenodd" clip-rule="evenodd" fill="#00AE6C" d="M239.062,404.551c-51.568-76.341-44.451-67.983-170.087-251.204
		H3.632l84.945,124.859L0,407.456h63.523l57.362-87.124l118.176,178.571V404.551L239.062,404.551z"/>
</g>
<g>
	<path fill="#1A1B1E" d="M508.548,375.672h-59.742V300.85H333.383v74.822h-60.322V181.656h60.322v68.731h115.423v-68.731h59.742
		V375.672z"/>
	<path fill="#1A1B1E" d="M797.4,290.989c0,58.582-40.312,87.873-120.934,87.873c-93.383,0-133.694-29.291-133.694-87.873V181.656
		h59.742v109.333c0,28.711,12.18,37.991,73.952,37.991c46.111,0,60.612-10.73,60.612-37.991V181.656H797.4V290.989z"/>
	<path fill="#1A1B1E" d="M1080.742,319.12c0,32.191-17.691,56.552-78.883,56.552H831.334V257.639h171.685
		c8.701,0,16.82-3.19,16.82-13.051c0-9.57-8.41-12.471-16.82-12.471H831.334l40.601-50.461h128.474
		c46.401,0,76.272,17.98,76.272,53.651c0,22.911-13.05,35.671-26.391,40.602C1067.111,280.839,1080.742,295.92,1080.742,319.12z
		 M891.656,299.109v26.681h110.494c13.05,0,18.561-4.64,18.561-13.63c0-8.41-5.511-13.051-18.561-13.051H891.656z"/>
</g>
</svg>
