<?xml version="1.0" encoding="utf-8"?>
<!-- Generator: Adobe Illustrator 15.1.0, SVG Export Plug-In . SVG Version: 6.00 Build 0)  -->
<!DOCTYPE svg PUBLIC "-//W3C//DTD SVG 1.1//EN" "http://www.w3.org/Graphics/SVG/1.1/DTD/svg11.dtd">
<svg version="1.1" id="Layer_1" xmlns="http://www.w3.org/2000/svg" xmlns:xlink="http://www.w3.org/1999/xlink" x="0px" y="0px"
	 width="1274.4px" height="350px" viewBox="0 0 1274.4 350" enable-background="new 0 0 1274.4 350" xml:space="preserve">
<g>
	<path fill="#191717" d="M76.7,49.6c1.8-1.8,7.5-3.8,17.1-6.1c9.6-2.3,21.6-4.5,35.9-6.7c14.3-2.2,30.3-4,47.8-5.5
		s34.9-2.2,52.1-2.2c14.8,0,29.1,0.7,42.7,2.1c13.6,1.4,25.7,3.8,36,7.3c10.4,3.5,18.6,8,24.8,13.6c6.1,5.6,9,12.7,8.6,21.2
		c-0.2,5.3-2.6,10.8-7.1,16.3c-4.6,5.5-10.5,10.9-17.9,16.2c-7.4,5.2-16,10.3-25.7,15.3c-9.7,4.9-19.9,9.6-30.6,13.9
		c-10.7,4.4-21.5,8.4-32.3,12.2c-10.9,3.8-21.2,7-31,9.8c-9.8,2.8-18.7,5-26.8,6.8c-8.1,1.8-14.6,2.9-19.6,3.3
		c6.9,1.6,15.5,4.3,25.8,8c10.3,3.8,20.6,7.9,31,12.3c10.4,4.5,20.1,9,29.2,13.6c9.1,4.6,16,8.8,20.8,12.3
		c1.6,1.2,2.5,2.7,2.7,4.601c0.2,1.899-0.1,3.699-1,5.3c-0.9,1.7-2.2,3.2-4,4.5c-1.8,1.3-3.8,1.899-5.9,1.899
		c-1,0-2.5-0.399-4.5-1.199c-8.3-4.301-18.5-9.2-30.7-14.5c-12.2-5.301-24.8-10.5-37.8-15.4c-13.1-4.9-25.8-9.4-38.3-13.4
		s-23.3-6.6-32.6-8c-2,2.601-5.1,6.601-9.3,12c-4.3,5.4-9,11.601-14.4,18.4c-5.3,6.8-10.9,14-16.6,21.5c-5.7,7.5-11,14.6-15.9,21.2
		c-4.8,6.6-8.9,12.5-12.2,17.7c-3.3,5.1-5.1,8.699-5.5,10.699c-1,3.801-2.7,6.4-5,7.9c-2.4,1.5-5,2.2-8,2.2
		c-2.8,0-5.5-0.601-8.3-1.8c-2.8-1.2-5-2.801-6.8-4.9c-1.8-2.1-2.8-4.5-3.1-7.3C0,271.9,1,269.1,3.4,266.1s5.7-7.199,9.9-12.6
		c4.3-5.4,9-11.4,14.2-17.8c5.2-6.4,10.6-13.101,16-19.9s10.5-13.2,15.1-19.1c4.6-5.9,8.7-11.101,12.2-15.4s5.7-7.3,6.7-8.9
		c-5.1-2.6-8.9-5.5-11.1-8.9c-2.3-3.4-3.3-6.6-3-9.6c0.3-3.1,1.9-5.6,4.7-7.7c2.9-2.1,7-3,12.3-2.8c2.4,0,4.8,0.1,7.3,0.3
		c2.5,0.2,4.9,0.5,7.3,0.9c1.4,0.2,3.9-1.6,7.4-5.3c3.6-3.8,7.7-8.6,12.3-14.4c4.6-5.8,9.6-12.3,14.8-19.3s10.1-13.8,14.7-20.3
		c4.5-6.5,8.6-12.3,12.2-17.2s5.9-8.3,7.1-10.1c0-0.2-0.4-0.3-1.2-0.3c-6.1-0.2-12.5,0.6-19,2.4c-6.5,1.8-13.1,3.8-19.6,5.9
		c-6.5,2.2-13,4.2-19.3,6.1C98,73.9,92,74.7,86.2,74.5c-4-0.2-7.2-2-9.8-5.5s-3.8-7-3.6-10.5C73.3,54.7,74.6,51.8,76.7,49.6z
		 M133.4,148.1c6.5,0.2,15.4-0.9,26.6-3.3c11.2-2.4,23.2-5.5,36.2-9.5s26.2-8.6,39.6-13.8c13.4-5.2,25.8-10.7,36.9-16.3
		c11.2-5.6,20.6-11.3,28.2-16.9c7.6-5.6,12-10.7,13.2-15.3c0.6-2.6-0.4-4.8-3-6.8s-6.2-3.8-10.8-5.3c-4.6-1.6-10.1-3-16.3-4.2
		c-6.2-1.2-12.7-2.2-19.3-3c-6.6-0.8-13.2-1.4-19.7-1.8s-12.5-0.6-17.8-0.6c-10.9,0-17.5,0.7-19.9,2.1c-0.4,0.2-2.5,2.6-6.2,7.1
		c-3.8,4.6-8.4,10.2-13.9,16.9c-5.5,6.7-11.5,14-17.8,21.8c-6.3,7.8-12.2,15.1-17.7,22c-5.4,6.8-10,12.7-13.6,17.5
		c-3.7,4.8-5.7,7.6-6.1,8.2c0,0.4,0.1,0.6,0.4,0.7C132.7,147.7,133,147.9,133.4,148.1z"/>
	<path fill="#191717" d="M344.3,217.8c8.5-0.6,17.7-2.6,27.6-6.1s19.7-7.7,29.5-12.601c9.8-4.899,19.3-10.199,28.6-15.899
		c9.3-5.601,17.7-10.9,25.1-15.7c7.4-4.8,13.5-8.9,18.4-12.2c4.8-3.3,7.9-4.9,9-4.9c1.8,0,2.7,0.9,2.7,2.7c0,1.2-0.3,2.9-0.9,5
		c-0.6,2.2-1.399,4.4-2.5,6.5c-1.1,2.2-2.2,4.3-3.399,6.2c-1.2,2-2.301,3.4-3.301,4.2c-8.1,6.7-17.399,13.9-27.899,21.5
		s-21.4,14.7-32.8,21.4c-11.4,6.6-22.9,12.3-34.601,16.899c-11.7,4.601-22.8,7.3-33.5,7.9c-5.5,0.399-11.2-0.3-17.1-2.2
		c-5.8-1.9-11.2-4.6-16-8c-4.8-3.5-8.9-7.7-12-12.6c-3.2-4.9-4.9-10.4-5.3-16.301c-0.4-5.1,1-11.3,4.2-18.399
		c3.2-7.101,7.4-14.4,12.6-22c5.2-7.5,11.3-15,18.1-22.4c6.8-7.4,13.7-14.1,20.8-20.2c7-6,13.9-10.9,20.6-14.7
		c6.7-3.8,12.7-5.8,17.8-6.2c4.5-0.4,8.5,0.3,11.9,2.1c3.399,1.8,6.199,4.2,8.5,7.1c2.3,3,4.1,6.4,5.3,10.2c1.3,3.9,2,7.8,2.2,11.7
		c0.199,3.8-1.4,8.4-4.9,13.8s-7.6,10.6-12.5,15.6c-4.8,4.9-10,9.2-15.4,12.9c-5.4,3.7-9.9,5.6-13.5,5.8
		c-5.7,0.399-11.1-0.5-16.2-2.7c-5-2.2-10-4.5-15-6.8c-1.2,0.4-3,2.3-5.3,5.6c-2.4,3.4-4.7,7.1-7.1,11.1c-2.4,4.101-4.4,8-6.1,11.7
		c-1.7,3.8-2.5,6.2-2.5,7.4c0.2,2.399,1.2,4.399,3.1,5.899c1.9,1.601,4.2,2.9,6.8,3.9c2.7,1,5.4,1.7,8.2,2.1
		C340.3,217.6,342.5,217.8,344.3,217.8z M393.3,127.6c-1.6,0.2-4.3,1.2-8,3.1c-3.8,1.9-7.6,4.1-11.4,6.7c-3.9,2.6-7.3,5.1-10.2,7.7
		c-3,2.6-4.5,4.6-4.5,6.2c0.2,1.6,1.3,2.7,3.4,3.4c2.1,0.7,3.7,0.9,4.9,0.7c2.2-0.2,4.8-1.3,8-3.3s6.3-4.4,9.3-7.3
		c3.1-2.9,5.7-5.8,7.9-8.8c2.2-3,3.3-5.5,3.3-7.7L393.3,127.6z"/>
	<path fill="#191717" d="M447,218.1c2.8,0,6.7-0.3,11.9-0.899c5.1-0.601,10.399-1.5,15.699-2.8c5.301-1.301,10.301-2.9,15-4.9
		c4.601-2,7.801-4.3,9.301-7.1c0-4.2-1.4-8.101-4.2-11.7c-2.8-3.7-5.9-7.3-9.5-10.8c-3.601-3.601-7-7.3-10.4-11.3
		c-3.399-4-5.6-8.4-6.8-13.4c-0.6-2.6,0.3-5.9,2.8-9.9c2.5-4.1,5.8-8.3,10.101-12.8c4.3-4.4,9.1-8.9,14.5-13.5
		c5.399-4.5,10.899-8.6,16.5-12.2c5.5-3.6,10.8-6.5,15.899-8.8c5-2.3,9.2-3.4,12.601-3.4c4,0,7.3,1,9.899,3c2.7,2,4.5,4.4,5.601,7.1
		c1.1,2.8,1.199,5.6,0.399,8.6s-2.8,5.3-5.899,7.1c-4.601,2.6-9.601,5.4-15.101,8.5s-11,6-16.3,8.9c-5.3,2.9-10.3,5.6-14.8,8.2
		c-4.601,2.6-8,4.7-10.4,6.5c6.5,5.1,12.4,11.2,17.7,18.2c5.2,7,9.6,14.399,13.2,22.1c6.899-2.6,13.5-5.399,19.7-8.6
		c6.199-3.2,12.1-6.3,17.699-9.5c5.5-3.2,10.7-6.2,15.601-9.2c4.8-3,9.2-5.5,13.2-7.7c2.6-1.6,4.8-2.6,6.699-3.1
		c1.9-0.5,3.5-0.7,4.9-0.7c2.2,0,3.7,0.6,4.4,1.9c0.8,1.3,1.199,2.8,1.199,4.5c0,1.7-0.3,3.4-1,5c-0.699,1.7-1.399,2.9-2.199,3.7
		c-1.2,1.2-4.301,3.6-9.2,7.3c-4.9,3.699-11.2,7.899-18.7,12.8c-7.5,4.8-16.1,10-25.7,15.399C541.7,210,531.6,215.2,520.9,220.2
		c-4,4.2-9.4,8-16.5,11.6c-7,3.601-14.2,6.601-21.5,9c-7.301,2.5-14,4.4-20.2,5.8c-6.101,1.4-10.4,2.101-12.8,2.101
		c-4.2,0-7.301-1.601-9.301-4.7c-2.1-3.2-3.199-6.6-3.3-10.4c-0.1-3.8,0.7-7.3,2.4-10.5C441.4,219.7,443.8,218.1,447,218.1z"/>
	<path fill="#191717" d="M529.7,246.6c4.2-6.1,9.6-13.8,16.5-23.1c6.8-9.3,14.2-19.2,22.1-29.8c7.9-10.601,16.101-21.4,24.5-32.5
		c8.4-11.1,16.4-21.5,23.9-31.3c7.5-9.8,14.1-18.6,19.899-26.4c5.7-7.8,9.9-13.7,12.5-17.7c-5.5,0.2-11.8,0.7-18.699,1.6
		c-6.9,0.9-13.9,2-21.101,3.3c-7.1,1.3-14,2.6-20.8,3.9c-6.7,1.3-12.9,2.5-18.4,3.7c-2.399,0.4-4.5-0.3-6.399-2.2
		c-1.9-1.9-3.2-4.3-4-7.3s-0.9-6-0.4-9.2c0.5-3.2,1.9-5.7,4.3-7.7c0.801-0.6,3.601-1.2,8.301-1.9c4.699-0.7,10.6-1.4,17.699-2.1
		c7-0.7,14.601-1.3,22.7-1.9c8.101-0.6,15.9-1.1,23.4-1.6s14.2-0.9,20-1.2c5.8-0.3,9.8-0.4,12-0.4c3-4,5.3-7.1,7.1-9.5
		c1.8-2.4,3.5-4.6,5-6.8c1.601-2.2,3.2-4.5,4.9-7s3.899-5.8,6.7-9.9c1.6-2.4,3.1-4.8,4.6-7.4c1.5-2.6,3.1-4.9,4.9-7.1
		c1.8-2.2,3.899-4,6.199-5.3c2.4-1.4,5.101-2.1,8.301-2.1c4.3,0,8.199,1.5,11.399,4.6c3.3,3.1,4.9,6.8,4.9,11.1
		c0,2.6-1.101,5.4-3.4,8.6s-4.899,6.4-8,9.8c-3.1,3.4-6.2,6.8-9.3,10.4c-3.2,3.6-5.6,6.9-7.4,10.1c11.7,0.2,22.4,0.4,32.301,0.6
		c9.899,0.2,20.5,0.6,31.699,1.2c6.101,0.2,10.301,1.3,12.601,3.4s3.399,4.3,3.3,6.7c-0.1,2.4-1.1,4.5-3,6.4s-4,2.8-6.4,2.8
		c-15.8-0.4-30.8-0.5-44.899-0.3c-14.101,0.2-29.4,0.9-45.8,2.1c-4.2,5.7-9.801,13.3-17.101,22.5c-7.2,9.3-15.1,19.4-23.7,30.4
		c-8.6,11-17.5,22.4-26.699,34.1c-9.2,11.8-17.9,23.1-26.101,34c-8.2,10.899-15.5,20.899-22,30c-6.399,9.1-11.1,16.3-14.1,21.7
		c-0.601,1.399-1.2,2.899-1.8,4.5c-0.601,1.6-1.301,3.1-2.101,4.5c-0.8,1.399-1.8,2.6-3.1,3.6s-3,1.5-5.2,1.5
		c-4.9,0.2-8.8-0.3-11.4-1.6c-2.699-1.301-4.5-3.101-5.3-5.301c-0.899-2.3-0.899-4.899,0-8C525.7,253.4,527.4,250.1,529.7,246.6z"/>
	<path fill="#191717" d="M829.9,148.4c4.699-3.6,8.6-5.5,11.399-5.9c2.9-0.4,4.8,0.3,5.8,1.9c1,1.7,1,4.1,0.101,7.1
		c-0.9,3.1-2.601,6.2-5.2,9.3c-4.7,5.9-11.8,12.4-21.1,19.3c-9.301,6.9-19.601,13.301-31,19c-11.4,5.7-23.2,10.301-35.5,13.801
		c-12.301,3.5-23.9,4.699-35,3.699c-2.601,2.601-5.7,5.5-9.301,8.9c-3.699,3.4-7.6,6.5-11.699,9.5c-4.2,3-8.4,5.5-12.601,7.7
		c-4.3,2.2-8.399,3.399-12.3,3.6c-3,0.2-6.1-0.3-9.3-1.3c-3.3-1.1-6.2-2.7-8.9-4.7c-2.7-2.1-4.899-4.6-6.7-7.399
		c-1.8-2.9-2.8-5.801-3-8.801c-0.399-6.3,1-13.699,4.2-22.1s7.5-17,13.101-25.8c5.5-8.8,12-17.5,19.3-26.1s14.899-16.4,22.8-23.3
		c7.9-6.9,15.7-12.6,23.4-16.9c7.699-4.3,14.8-6.7,21.399-7.1c3.4-0.2,6.7,0.3,9.9,1.6c3.3,1.3,6.2,3.1,8.899,5.3
		c2.7,2.3,4.801,5,6.5,8.2c1.7,3.2,2.601,6.4,2.801,9.8c0.399,4.2-0.601,9.2-3,15.3c-2.4,6-5.4,12.2-9.2,18.5s-7.8,12.5-12.2,18.4
		c-4.4,5.899-8.3,10.8-11.9,14.5c6.9-0.601,14.301-2.5,22.301-5.801c7.899-3.3,15.8-7.199,23.699-11.699
		c7.9-4.5,15.5-9.3,22.801-14.4C818,157.4,824.4,152.7,829.9,148.4z M672.4,224c4.5-2.4,8.8-5.1,12.899-8.2
		c4.101-3.1,7.7-6.6,10.8-10.5L685.7,192.5c-0.8,1.2-2,3.1-3.7,5.6c-1.7,2.601-3.4,5.301-5,8.301c-1.7,3-3.2,5.699-4.4,8.3
		c-1.3,2.6-1.899,4.399-1.899,5.3C670.6,221.7,671.2,223,672.4,224z M712.8,189.3c2.601-2,6.101-5.7,10.7-11.1
		c4.5-5.4,9-11.3,13.3-17.7c4.3-6.3,8.101-12.5,11.101-18.5c3.1-6,4.5-10.7,4.3-14.1c-4.2,0.8-9,3.1-14.5,6.8
		c-5.5,3.8-10.8,8.2-15.7,13.2s-9.1,10.3-12.5,15.7s-4.9,10.4-4.7,15c0,0.801,0.2,1.801,0.601,3.101c0.399,1.3,1,2.5,1.8,3.7
		c0.8,1.199,1.6,2.1,2.5,2.8C710.5,189,711.6,189.3,712.8,189.3z"/>
	<path fill="#191717" d="M987.5,144.5c1.2,0,2.1,1.1,2.8,3.3c0.7,2.2,1.101,3.8,1.3,4.7c0,1.6-0.1,3.1-0.399,4.6s-0.9,2.8-1.9,4
		c-1,1.4-3.5,3.2-7.399,5.3c-4,2.2-8.7,4.5-14.101,7c-5.399,2.5-11.399,5-17.8,7.6s-12.6,5-18.4,7.3c-5.8,2.3-11.199,4.3-16,6.101
		c-4.8,1.8-8.5,3.1-10.8,3.899c-7.899,2.601-15.3,6.4-22.1,11.4s-13.601,10.1-20.5,15.1c-6.8,5-13.8,9.5-20.9,13.5
		c-7.1,4-14.899,6-23.399,6.2c-3.2,0.2-5.801,0.2-7.9,0s-4-0.6-5.6-1.2c-1.7-0.6-3.4-1.399-5.2-2.5c-1.8-1.1-4.101-2.399-6.8-4
		c-2.601,2.2-5,4-7.4,5.5s-5.2,2.3-8.6,2.5c-4,0.2-7.601-1.1-11-3.899c-3.4-2.801-5.101-6.2-5.301-10.4c0-1.4,1.101-3.9,3.301-7.6
		c2.199-3.7,4.699-7.601,7.6-11.7c2.9-4.2,5.7-7.9,8.5-11.3c2.8-3.4,4.7-5.4,5.9-6.2c2.399-1.601,5.399-4.2,9.199-8
		c3.801-3.8,7.9-8.101,12.301-13.1c4.5-4.9,9-10.3,13.8-16c4.7-5.7,9.3-11.2,13.6-16.5c4.3-5.2,8.3-10.1,11.7-14.5
		c3.5-4.5,6.1-8,7.9-10.5c1.199-1.6,2.5-3.4,4-5.5s3-4.2,4.6-6.4c7.7-10.1,15.9-21.1,24.6-33.1c8.7-12,17.2-23.1,25.4-33.4
		c8.2-10.3,15.7-18.9,22.5-26c6.6-6.9,12-10.5,16-10.7c2.8-0.2,5.5,0.5,8.2,2.1s4.8,3.6,6.399,6.1c1.601,2.5,2.601,5.2,3,8.2
		c0.4,3-0.199,5.8-1.8,8.6c-3,4.6-7.2,9.8-12.6,15.7c-5.4,5.9-11.601,12.3-18.4,19.1c-6.8,6.8-14.1,14-22,21.7
		c-7.8,7.6-15.5,15.6-23,23.9c-3.2,3.6-5.8,6.4-8,8.5s-4.399,4.7-6.5,7.9c6.101-2.2,12.101-4.6,17.9-7.4c5.8-2.8,12-4.3,18.5-4.7
		c3.2-0.2,6.1,0.3,8.8,1.6c2.7,1.3,4.9,3.1,6.8,5.3c1.9,2.3,3.4,4.8,4.601,7.7c1.199,2.9,1.8,5.8,1.8,8.8c0.2,4.2-0.3,7.9-1.5,11.3
		s-2.8,6.6-4.7,9.6c-2,3.1-4.1,6.1-6.4,9c-2.3,3-4.3,6.1-6.1,9.5c3.6-0.6,8.6-1.9,15-4s13.2-4.3,20.2-6.8s13.6-5.1,19.7-7.9
		c6.1-2.8,10.6-5.2,13.3-7.4c1-0.8,1.5-1.2,1.6-1.3C985.9,144.9,986.5,144.7,987.5,144.5z M808.9,224.3c2.8,0,6.1-0.399,10.1-1.2
		c4-0.8,8-1.899,12-3.3c4.1-1.399,7.8-3,11.1-4.899c3.4-1.9,5.7-4,7.101-6.4c0-0.4-1.5-0.9-4.4-1.5c-3-0.6-6.3-1.2-9.899-1.8
		c-3.7-0.601-7.101-1.101-10.4-1.5c-3.3-0.4-5.1-0.601-5.5-0.601c-1.8,0-3.7,0.601-5.6,1.801c-2,1.199-3.801,2.6-5.5,4.3
		c-1.7,1.7-3.101,3.6-4.2,5.6C802.6,216.9,802.1,218.9,802.1,220.9c0,1,0.4,1.899,1.2,2.699C805.2,224.3,807.1,224.5,808.9,224.3z
		 M858.1,187.2c1.2,0,2.601,0,4.301-0.101c1.699-0.1,3.399-0.199,5.199-0.399c1.801-0.2,3.5-0.4,5.2-0.7s3-0.7,4-1.3
		c2.2-1.2,5.2-4.101,9.2-8.8c4-4.601,7.9-9.7,11.9-15.3c4-5.5,7.399-10.9,10.199-16.2c2.9-5.2,4.301-9,4.301-11.4
		c-0.2-2-1.101-2.9-2.7-2.7c-4.601,0.2-9.7,1.4-15.601,3.6c-5.8,2.2-11.699,5-17.699,8.5c-5.9,3.5-11.801,7.2-17.5,11.3
		c-5.7,4.1-10.801,7.9-15.301,11.6c-4.5,3.7-8,7-10.699,9.9c-2.7,3-4,5-4,6.2c0,0.6,1.399,1.199,4.199,1.899
		c2.801,0.7,5.801,1.3,9.2,1.9c3.4,0.6,6.601,1.1,9.8,1.5C855.4,187,857.3,187.2,858.1,187.2z"/>
	<path fill="#191717" d="M1137.6,160.8c4-3,7.7-5.2,11.101-6.7c3.5-1.5,6.399-2.2,8.8-2.2c3.8,0,5.7,1.5,5.9,4.6
		c0.199,3.1-2.601,7.6-8.301,13.5c-5.699,5.9-12,12.4-18.8,19.3c-6.8,6.9-13.8,13.4-21.1,19.4c-7.2,6-14.4,11-21.7,15
		c-7.2,4-14.1,5.899-20.6,5.899c-4.9,0-9.9-0.899-14.801-2.8c-4.899-1.899-9.199-4.6-12.899-8.2c-3.7-3.6-6.5-7.899-8.5-12.899
		s-2.5-10.7-1.5-17.101c-4.4,4.7-9.4,10.101-15.101,16c-5.699,5.9-11.699,11.601-17.899,17.101c-6.2,5.399-12.7,10.1-19.4,13.899
		c-6.7,3.9-13.3,6-19.899,6.4c-3.2,0.2-6.4-0.1-9.601-1c-3.3-0.9-6.2-2.2-8.899-3.9c-2.7-1.699-4.9-3.8-6.7-6.199
		c-1.8-2.5-2.8-5.301-3-8.5c-0.2-5.101,1.6-11.7,5.3-19.601c3.8-7.899,8.8-16.3,15.3-25.1c6.4-8.8,13.8-17.6,22.1-26.4
		c8.301-8.8,16.801-16.8,25.5-24c8.7-7.2,17.301-13.1,25.7-17.8c8.4-4.6,15.9-7.2,22.4-7.6c3.6-0.2,6.7,0.2,9.3,1.2
		c2.7,1,5,2.2,7.101,3.6c2.1,1.4,3.8,2.8,5.199,4.2c1.4,1.4,2.5,2.5,3.301,3.3c2.399-2.8,4.699-5,7-6.7c2.3-1.7,4.8-2.6,7.6-2.8
		c3-0.2,5.8,0.4,8.5,1.8s4.7,3.2,6.1,5.5c1.4,2.3,1.9,4.9,1.5,7.9c-0.399,3-2.3,5.9-5.6,8.9c-3,2.6-6.8,6.7-11.4,12.5
		c-4.6,5.7-9.1,12-13.5,18.8c-4.399,6.8-8,13.6-11,20.5c-3,6.801-4.399,12.601-4.199,17.4c0.199,2.6,1.1,4.8,2.699,6.7
		c1.601,1.899,4.301,2.6,8,2.2c4-0.2,8.601-1.9,13.9-5c5.3-3.2,11-7.101,16.9-11.7c5.899-4.601,11.899-9.601,17.899-14.8
		C1126.3,170,1132,165.2,1137.6,160.8z M963.7,218.4c2.2-0.2,6-2.2,11.399-6.101c5.4-3.899,11.601-8.7,18.4-14.5
		s13.9-12.3,21.4-19.3c7.399-7,14.199-13.8,20.3-20.3c6.1-6.5,11.1-12.5,15-17.8c3.899-5.3,5.7-9.1,5.5-11.3c0-1.4-0.9-2.1-2.7-2.1
		c-3.2,0-7.6,1.9-13.3,5.6c-5.7,3.8-12,8.5-18.7,14.2c-6.7,5.7-13.6,12.2-20.6,19.3s-13.4,14-19,20.6
		c-5.601,6.6-10.2,12.7-13.801,18.2c-3.6,5.5-5.199,9.6-5,12.199C962.5,218,962.9,218.4,963.7,218.4z"/>
	<path fill="#191717" d="M1125.7,221.3c-1.2,1.601-2.5,3.5-3.9,5.601c-1.399,2.199-2.899,4.199-4.6,6.1s-3.5,3.5-5.3,4.7
		c-1.9,1.3-3.9,1.899-6.101,1.899c-2.6,0-5.2-1.199-8-3.6c-3-2.6-4.399-5.6-4.2-9.2c0.2-3.6,1.2-7.1,3-10.7
		c1.801-3.6,4-7,6.5-10.199c2.601-3.301,4.7-6.101,6.5-8.5c9.5-12.101,19.4-24.4,29.7-37.101c10.3-12.7,19.5-25.5,27.601-38.6
		c1.199-1.8,2.6-3.9,4.3-6.2c1.7-2.4,3.6-4.5,5.6-6.5c2.101-2,4.3-3.7,6.5-5c2.3-1.4,4.601-2.1,7-2.1c1.8,0,3.601,0.5,5.5,1.5
		c1.9,1,3.601,2.6,5.2,4.7c1.6,2,2.5,3.8,2.7,5.3c0.199,1.6,0.3,2.9,0.399,3.9c0.101,1,0.301,1.8,0.7,2.4c0.4,0.6,1.5,0.9,3.3,0.9
		c1.601,0,4.101-0.3,7.601-0.9c3.5-0.6,8.399-1.4,14.699-2.4c2.2-0.4,5.101-0.8,8.801-1.3c3.699-0.5,7.5-0.7,11.399-0.7
		c2.801,0,5.5,0.2,8.301,0.6c2.8,0.4,5.199,1.1,7.399,2.1s4,2.4,5.5,4.3c1.5,1.9,2.3,4.2,2.5,7c0.4,4-0.6,6.8-3.1,8.6
		c-2.5,1.8-5.101,2.7-7.9,2.7s-4.899-0.8-6.5-2.4c-2.2-2.2-4.399-3.3-6.5-3.3c-1,0-2.1,0.1-3.3,0.3c-1.2,0.2-2.6,0.5-4.2,0.9
		c-14.8,2.4-27.7,5.9-38.7,10.7c-11,4.7-20.899,10.7-29.8,17.8c-8.899,7.1-17.2,15.4-24.899,24.8
		C1141.7,198.8,1133.8,209.5,1125.7,221.3z"/>
</g>
<g>
	<path fill="#191717" d="M281.5,314.1h-15.3V326.4h14.1v5.699h-14.1V349.2h-6.8v-41h22.1V314.1L281.5,314.1z"/>
	<path fill="#191717" d="M305.2,349.3h-7v-41h7V349.3z"/>
	<path fill="#191717" d="M359.3,349.3h-7.4l-19.6-30.1c-0.5-0.8-0.9-1.5-1.2-2.4h-0.2c0.2,0.9,0.2,2.8,0.2,5.601v26.8h-6.6v-41h7.9
		l18.9,29.399c0.8,1.2,1.3,2.101,1.5,2.5h0.1c-0.2-1.1-0.3-2.899-0.3-5.5V308.2h6.5v41.1H359.3z"/>
	<path fill="#191717" d="M401.8,349.3h-23v-41H400.9v5.8h-15.3V325.7h14.1v5.7h-14.1v12.1h16.2V349.3L401.8,349.3z"/>
	<path fill="#191717" d="M443.9,349.3v-41h11.8c15.1,0,22.6,6.7,22.6,20c0,6.3-2.1,11.4-6.3,15.2s-9.8,5.8-16.8,5.8H443.9z
		 M450.6,314.1v29.4h5.4c4.8,0,8.5-1.3,11.2-3.9c2.7-2.6,4-6.3,4-11.1c0-9.6-5-14.4-14.9-14.4H450.6z"/>
	<path fill="#191717" d="M502.2,349.3h-7v-41h7V349.3z"/>
	<path fill="#191717" d="M556.3,349.3H548.9L529.3,319.2c-0.5-0.8-0.899-1.5-1.2-2.4H527.9c0.199,0.9,0.199,2.8,0.199,5.601v26.8
		h-6.6v-41h7.9L548.3,337.6c0.8,1.2,1.3,2.101,1.5,2.5h0.101c-0.2-1.1-0.301-2.899-0.301-5.5V308.2h6.5v41.1H556.3z"/>
	<path fill="#191717" d="M582.8,349.3h-7v-41h7V349.3z"/>
	<path fill="#191717" d="M637,349.3h-7.4L610,319.2c-0.5-0.8-0.9-1.5-1.2-2.4h-0.2c0.2,0.9,0.2,2.8,0.2,5.601v26.8h-6.6v-41h7.899
		L629,337.6c0.8,1.2,1.3,2.101,1.5,2.5h0.1c-0.199-1.1-0.3-2.899-0.3-5.5V308.2h6.5v41.1H637z"/>
	<path fill="#191717" d="M688.4,346.5c-4.301,2.3-9,3.5-14.301,3.5c-6.1,0-11-1.9-14.699-5.7c-3.801-3.8-5.601-8.8-5.601-15
		c0-6.3,2.101-11.5,6.2-15.6c4.1-4.101,9.3-6.101,15.6-6.101c4.5,0,8.4,0.7,11.5,2v7c-3.1-2.1-6.899-3.1-11.199-3.1
		c-4.4,0-7.9,1.4-10.7,4.3c-2.8,2.9-4.2,6.601-4.2,11.2c0,4.7,1.2,8.4,3.6,11.1c2.4,2.7,5.7,4,9.801,4c2.8,0,5.3-0.5,7.3-1.6v-9.7
		H673V327h15.4V346.5z"/>
	<path fill="#191717" d="M755,349.3h-23v-41h22.1v5.8h-15.3V325.7H752.9v5.7H738.8v12.1H755V349.3z"/>
	<path fill="#191717" d="M769.8,347.7v-7c0.601,0.6,1.4,1.1,2.2,1.5c0.9,0.5,1.8,0.8,2.8,1.2c1,0.3,1.9,0.6,2.9,0.699
		c1,0.2,1.899,0.301,2.7,0.301c2.899,0,5-0.5,6.399-1.4c1.4-1,2.101-2.3,2.101-4.1c0-1-0.2-1.801-0.7-2.5c-0.5-0.7-1.101-1.4-2-2
		c-0.8-0.601-1.8-1.2-3-1.7c-1.101-0.5-2.3-1.101-3.601-1.7c-1.399-0.7-2.699-1.5-3.899-2.3s-2.2-1.601-3.101-2.5
		c-0.899-0.9-1.6-2-2.1-3.101c-0.5-1.199-0.8-2.5-0.8-4.1c0-1.9,0.399-3.6,1.3-5s2-2.6,3.4-3.5c1.399-0.9,3-1.6,4.8-2.1
		c1.8-0.4,3.7-0.7,5.5-0.7c4.3,0,7.399,0.5,9.399,1.5v6.7c-2.3-1.7-5.3-2.5-9-2.5c-1,0-2,0.1-3,0.3s-1.899,0.5-2.699,0.899
		c-0.801,0.4-1.4,1-1.9,1.7s-0.7,1.5-0.7,2.5c0,0.9,0.2,1.7,0.601,2.4c0.399,0.7,0.899,1.3,1.699,1.8c0.7,0.6,1.601,1.1,2.7,1.6
		c1.101,0.5,2.3,1.101,3.7,1.7c1.4,0.7,2.8,1.5,4,2.3c1.3,0.801,2.4,1.7,3.3,2.7c1,1,1.7,2.101,2.3,3.3
		c0.601,1.2,0.801,2.601,0.801,4.101c0,2.1-0.4,3.8-1.301,5.3c-0.8,1.4-2,2.6-3.399,3.5c-1.4,0.9-3.101,1.5-4.9,1.9
		c-1.8,0.399-3.8,0.6-5.899,0.6c-0.7,0-1.5-0.1-2.5-0.2c-1-0.1-2-0.3-3.101-0.5c-1-0.2-2-0.399-3-0.7
		C770.8,348.3,770.3,348,769.8,347.7z"/>
	<path fill="#191717" d="M839.1,314.1h-11.8v35.2h-6.8v-35.2h-11.7v-5.8h30.3V314.1z"/>
	<path fill="#191717" d="M851.3,349.9c-1.1,0-2.1-0.4-2.899-1.101c-0.801-0.8-1.2-1.7-1.2-2.7c0-1.1,0.399-2,1.2-2.699
		c0.8-0.801,1.8-1.101,2.899-1.101c1.2,0,2.101,0.4,3,1.101c0.8,0.8,1.2,1.699,1.2,2.699s-0.4,1.9-1.2,2.7
		C853.4,349.5,852.4,349.9,851.3,349.9z"/>
	<path fill="#191717" d="M885.2,307.4V349.3H878.6v-33.8c-1.199,0.9-2.5,1.6-3.899,2.2c-1.4,0.6-3,1.1-4.7,1.6v-5.7
		c1.1-0.399,2.2-0.699,3.2-1.1s2-0.8,3-1.3s2-1,3-1.7c1-0.6,2.1-1.3,3.2-2.1H885.2z"/>
	<path fill="#191717" d="M930.5,326.6c0,4.101-0.4,7.601-1.3,10.601c-0.9,3-2.101,5.399-3.7,7.3s-3.4,3.3-5.5,4.2
		c-2.1,0.899-4.3,1.399-6.7,1.399c-0.8,0-1.6,0-2.399-0.1c-0.801-0.1-1.5-0.2-2.301-0.4c-0.699-0.199-1.399-0.3-1.899-0.5
		c-0.601-0.199-1.101-0.399-1.4-0.5v-6c0.4,0.2,0.9,0.5,1.5,0.801c0.601,0.3,1.2,0.5,1.9,0.699c0.7,0.2,1.399,0.4,2.2,0.5
		c0.8,0.101,1.5,0.2,2.199,0.2c1.601,0,3.101-0.3,4.4-0.899c1.3-0.601,2.5-1.601,3.4-2.801c0.899-1.199,1.699-2.8,2.199-4.6
		s0.801-4,0.801-6.4H923.8c-0.3,0.601-0.8,1.2-1.399,1.7c-0.601,0.5-1.2,1-1.9,1.4c-0.7,0.399-1.5,0.7-2.4,1
		c-0.899,0.2-1.8,0.399-2.8,0.399c-1.7,0-3.3-0.3-4.8-0.899c-1.5-0.601-2.8-1.5-3.8-2.601c-1.101-1.1-1.9-2.399-2.601-4
		c-0.6-1.6-0.899-3.3-0.899-5.3c0-2.1,0.399-4.1,1.1-5.8s1.7-3.2,2.9-4.4c1.2-1.199,2.7-2.1,4.399-2.8c1.7-0.7,3.5-1,5.5-1
		c1.801,0,3.601,0.3,5.2,1c1.601,0.7,3.101,1.8,4.3,3.3c1.2,1.5,2.2,3.5,3,5.9C930.1,320.3,930.5,323.2,930.5,326.6z M923.5,322.2
		c0-1.4-0.2-2.601-0.5-3.7c-0.4-1.1-0.8-2.1-1.5-2.9c-0.6-0.8-1.4-1.399-2.2-1.899c-0.899-0.4-1.8-0.7-2.8-0.7
		c-0.9,0-1.8,0.2-2.6,0.6c-0.801,0.4-1.601,0.9-2.2,1.601c-0.601,0.7-1.101,1.5-1.5,2.5c-0.4,1-0.5,2-0.5,3.2
		c0,1.3,0.2,2.399,0.5,3.399c0.399,1,0.8,1.8,1.5,2.5c0.6,0.7,1.399,1.2,2.3,1.5c0.9,0.4,1.9,0.5,2.9,0.5s1.8-0.2,2.6-0.5
		c0.8-0.399,1.5-0.8,2.1-1.399c0.601-0.601,1.101-1.301,1.4-2.101C923.4,324,923.5,323.1,923.5,322.2z"/>
	<path fill="#191717" d="M972.5,326.6c0,4.101-0.4,7.601-1.3,10.601c-0.9,3-2.101,5.399-3.7,7.3s-3.4,3.3-5.5,4.2
		c-2.1,0.899-4.3,1.399-6.7,1.399c-0.8,0-1.6,0-2.399-0.1c-0.801-0.1-1.5-0.2-2.301-0.4c-0.699-0.199-1.399-0.3-1.899-0.5
		c-0.601-0.199-1.101-0.399-1.4-0.5v-6c0.4,0.2,0.9,0.5,1.5,0.801c0.601,0.3,1.2,0.5,1.9,0.699c0.7,0.2,1.399,0.4,2.2,0.5
		c0.8,0.101,1.5,0.2,2.199,0.2c1.601,0,3.101-0.3,4.4-0.899c1.3-0.601,2.5-1.601,3.4-2.801c0.899-1.199,1.699-2.8,2.199-4.6
		s0.801-4,0.801-6.4H965.8c-0.3,0.601-0.8,1.2-1.399,1.7c-0.601,0.5-1.2,1-1.9,1.4c-0.7,0.399-1.5,0.7-2.4,1
		c-0.899,0.2-1.8,0.399-2.8,0.399c-1.7,0-3.3-0.3-4.8-0.899c-1.5-0.601-2.8-1.5-3.8-2.601c-1.101-1.1-1.9-2.399-2.601-4
		c-0.6-1.6-0.899-3.3-0.899-5.3c0-2.1,0.399-4.1,1.1-5.8s1.7-3.2,2.9-4.4c1.2-1.199,2.7-2.1,4.399-2.8c1.7-0.7,3.5-1,5.5-1
		c1.801,0,3.601,0.3,5.2,1c1.601,0.7,3.101,1.8,4.3,3.3c1.2,1.5,2.2,3.5,3,5.9C972.1,320.3,972.5,323.2,972.5,326.6z M965.5,322.2
		c0-1.4-0.2-2.601-0.5-3.7c-0.4-1.1-0.8-2.1-1.5-2.9c-0.6-0.8-1.4-1.399-2.2-1.899c-0.899-0.4-1.8-0.7-2.8-0.7
		c-0.9,0-1.8,0.2-2.6,0.6c-0.801,0.4-1.601,0.9-2.2,1.601c-0.601,0.7-1.101,1.5-1.5,2.5c-0.4,1-0.5,2-0.5,3.2
		c0,1.3,0.2,2.399,0.5,3.399c0.399,1,0.8,1.8,1.5,2.5c0.6,0.7,1.399,1.2,2.3,1.5c0.9,0.4,1.9,0.5,2.9,0.5s1.8-0.2,2.6-0.5
		c0.8-0.399,1.5-0.8,2.1-1.399c0.601-0.601,1.101-1.301,1.4-2.101C965.4,324,965.5,323.1,965.5,322.2z"/>
	<path fill="#191717" d="M1015,336.1c0,2.101-0.3,3.9-1,5.601s-1.6,3.2-2.8,4.399c-1.2,1.2-2.601,2.2-4.3,2.9
		c-1.601,0.7-3.4,1-5.4,1c-2.1,0-3.9-0.4-5.7-1.2c-1.7-0.8-3.2-2-4.5-3.6c-1.2-1.601-2.2-3.5-2.899-5.9c-0.7-2.399-1-5.1-1-8.2
		c0-3.8,0.5-7.1,1.399-10.1c0.9-2.9,2.101-5.4,3.7-7.4s3.4-3.5,5.6-4.5c2.101-1,4.4-1.5,6.9-1.5c1.5,0,2.9,0.101,4.2,0.301
		c1.3,0.199,2.3,0.5,3,0.899v6c-1-0.5-2-0.899-3.101-1.3c-1.1-0.3-2.399-0.5-3.8-0.5c-1.6,0-3.1,0.3-4.399,1
		c-1.4,0.6-2.5,1.6-3.5,2.8s-1.801,2.8-2.301,4.601c-0.6,1.8-0.899,4-0.899,6.399h0.2c0.899-1.399,2.1-2.399,3.6-3.2
		c1.5-0.8,3.3-1.199,5.3-1.199c1.8,0,3.4,0.3,4.8,0.899c1.4,0.601,2.7,1.4,3.7,2.5c1,1.101,1.8,2.4,2.4,4
		C1014.7,332.4,1015,334.2,1015,336.1z M1008.3,336.7c0-1.2-0.1-2.3-0.399-3.2c-0.301-0.9-0.7-1.8-1.301-2.5
		c-0.6-0.7-1.3-1.2-2.1-1.6c-0.8-0.4-1.8-0.601-3-0.601c-1.1,0-2.1,0.2-3,0.601c-0.9,0.399-1.6,0.899-2.2,1.6
		c-0.6,0.7-1,1.4-1.3,2.3c-0.3,0.9-0.4,1.7-0.4,2.601c0,1,0.101,2,0.4,3s0.7,1.899,1.3,2.8c0.601,0.8,1.3,1.5,2.2,2.1
		c0.9,0.5,1.9,0.8,3.2,0.8c1.1,0,2-0.199,2.899-0.6c0.801-0.4,1.5-1,2.101-1.7c0.6-0.7,1-1.5,1.3-2.5
		C1008.1,338.8,1008.3,337.8,1008.3,336.7z"/>
</g>
<line fill="none" stroke="#C19977" stroke-width="5" stroke-miterlimit="10" x1="50" y1="328.8" x2="226.6" y2="328.8"/>
<line fill="none" stroke="#C19977" stroke-width="5" stroke-miterlimit="10" x1="1046" y1="328.8" x2="1222.6" y2="328.8"/>
</svg>
